<?xml version="1.0" encoding="utf-8"?>
<!-- Generator: Adobe Illustrator 19.2.1, SVG Export Plug-In . SVG Version: 6.00 Build 0)  -->
<svg version="1.1" id="layer" xmlns="http://www.w3.org/2000/svg" xmlns:xlink="http://www.w3.org/1999/xlink" x="0px" y="0px"
	 viewBox="0 0 652 652" style="enable-background:new 0 0 652 652;" xml:space="preserve">
<polygon points="145,318.2 181.7,318.2 181.7,297.1 145,297.1 145,275.7 183.5,275.7 183.5,254.3 119.2,254.3 119.2,363.4 
	185.5,363.4 185.5,341.3 145,341.3 "/>
<polygon points="20.9,254.3 20.9,277.6 46.3,277.6 46.3,363.4 73.3,363.4 73.3,277.6 98.8,277.6 98.8,254.3 "/>
<g>
	<path d="M269.9,315.8c13.3-4.4,18.7-16.8,18.7-27.8c0-18.7-11.8-31.9-30.1-33.1c0,0-3.6-0.4-11-0.5c-4.1-0.1-37.3,0-37.3,0v109.1
		H236v-88.8c6.7-0.1,11.7,0.1,11.7,0.1c9.5,0.3,16.1,6,16.1,16.4c0,9.4-7.8,15.3-16.3,15.8c0,0-1.8,0.2-8.5,0.2
		c0,0.2,0.1,0.3,0.1,0.5l26.3,55.8h30.8L269.9,315.8z"/>
	<path d="M619.9,261.7c-1.8,8.7-6,18.4-13.9,24.1c-7.9,5.7-19.4,7.5-29.7,7.5c-10.3,0-21.1-1.8-26.7-7.5c-5.6-5.7-6-15.4-4.3-24.1
		c1.8-8.7,6.1-18.4,13.9-24.1c7.9-5.7,19.4-7.3,29.7-7.3c10.3,0,21.1,1.6,26.7,7.3C621.3,243.3,621.7,253,619.9,261.7 M607.9,240.6
		c-4.1-4.9-12.3-6-20-6c-7.7,0-16.5,1.1-22.5,6c-6,4.9-9.2,13.5-10.6,21c-1.4,7.5-1.4,16.1,2.6,21c4.1,4.9,12.4,5.9,20,5.9
		c7.7,0,16.4-1,22.4-5.9c6-4.9,9.2-13.5,10.6-21C612,254.2,612,245.6,607.9,240.6"/>
</g>
<polygon points="568.4,254.3 578.4,254.3 573,282 584.4,282 589.9,254.3 599.9,254.3 601.8,244.1 586.1,244.1 570.4,244.1 "/>
<g>
	<path d="M403.3,280.6C403.3,280.6,403.3,280.6,403.3,280.6l0,82.8h26.5V254.3h-42.5l-16.1,68.4c0,0,0,0,0,0h-0.3c0,0,0,0,0,0
		l-14.6-68.4h-43.6v109.1h25.8v-82.8c0,0,0,0,0,0h0.3c0,0,0,0,0,0l22.2,82.8h18.4l23.6-82.8c0,0,0,0,0,0H403.3"/>
	<path d="M509.5,254.3h-32.6l-36.5,109.1h28.3l7.1-23.1h32.3l5.8,23.1h30.6L509.5,254.3z M480.9,319.3l11.8-42.8c0,0,0,0,0,0h0.3
		c0,0,0,0,0,0l9.6,42.8H480.9z"/>
	<path d="M209.2,413.4l7-25.1h6.9l6.8,25.1h-5.5l-1.4-5.6h-7.2l-1.4,5.6H209.2z M219.4,393.1L219.4,393.1l-2.5,10.9h5L219.4,393.1z"
		/>
	<polygon points="231.4,413.4 231.4,388.3 236.7,388.3 236.7,409.3 244.6,409.3 244.6,413.4 	"/>
	<polygon points="245.8,413.4 245.8,388.3 251.1,388.3 251.1,409.3 259,409.3 259,413.4 	"/>
	<rect x="260.2" y="388.3" width="5.3" height="25.1"/>
	<polygon points="268.9,413.4 268.9,388.3 282.6,388.3 282.6,392.2 274.1,392.2 274.1,398.4 281.9,398.4 281.9,402.2 274.1,402.2 
		274.1,409.6 282.9,409.6 282.9,413.4 	"/>
	<path d="M292.1,413.9c-6.5,0-7.7-3.8-7.4-8.2h5.3c0,2.4,0.1,4.4,3,4.4c1.8,0,2.7-1.1,2.7-2.9c0-4.5-10.6-4.8-10.6-12.3
		c0-3.9,1.9-7.1,8.3-7.1c5.1,0,7.7,2.3,7.3,7.6h-5.1c0-1.9-0.3-3.8-2.4-3.8c-1.7,0-2.7,0.9-2.7,2.7c0,4.8,10.6,4.4,10.6,12.3
		C300.8,413.1,296.1,413.9,292.1,413.9"/>
	<rect x="312.5" y="388.3" width="5.3" height="25.1"/>
	<polygon points="323,413.4 323,388.3 330.2,388.3 336.8,405.7 336.9,405.7 336.9,388.3 341.8,388.3 341.8,413.4 334.9,413.4 
		328,395.1 328,395.1 328,413.4 	"/>
	<rect x="355.6" y="388.3" width="5.3" height="25.1"/>
	<polygon points="366.1,413.4 366.1,388.3 373.2,388.3 379.9,405.7 380,405.7 380,388.3 384.9,388.3 384.9,413.4 377.9,413.4 
		371.1,395.1 371,395.1 371,413.4 	"/>
	<polygon points="390.1,413.4 390.1,388.3 397.3,388.3 403.9,405.7 404,405.7 404,388.3 408.9,388.3 408.9,413.4 402,413.4 
		395.1,395.1 395.1,395.1 395.1,413.4 	"/>
	<path d="M413.9,400.9c0-6.7,0-13,8.7-13c8.7,0,8.7,6.3,8.7,13c0,6.6,0,13-8.7,13C413.9,413.9,413.9,407.5,413.9,400.9 M425.9,400.9
		c0-6.4-0.4-9.2-3.3-9.2c-3,0-3.3,2.8-3.3,9.2c0,6.4,0.4,9.2,3.3,9.2C425.5,410.1,425.9,407.3,425.9,400.9"/>
	<polygon points="434.2,388.3 439.7,388.3 443.6,406.6 443.6,406.6 448,388.3 453.2,388.3 446.6,413.4 440.4,413.4 	"/>
	<path d="M453.2,413.4l7-25.1h6.9l6.8,25.1h-5.5l-1.4-5.6h-7.2l-1.4,5.6H453.2z M463.3,393.1L463.3,393.1l-2.5,10.9h5L463.3,393.1z"
		/>
	<polygon points="490.1,388.3 490.1,392.5 484.2,392.5 484.2,413.4 479,413.4 479,392.5 473.1,392.5 473.1,388.3 	"/>
	<rect x="493.3" y="388.3" width="5.3" height="25.1"/>
	<path d="M503.6,400.9c0-6.7,0-13,8.7-13c8.7,0,8.7,6.3,8.7,13c0,6.6,0,13-8.7,13C503.6,413.9,503.6,407.5,503.6,400.9 M515.6,400.9
		c0-6.4-0.4-9.2-3.3-9.2c-3,0-3.3,2.8-3.3,9.2c0,6.4,0.4,9.2,3.3,9.2C515.2,410.1,515.6,407.3,515.6,400.9"/>
	<polygon points="525.9,413.4 525.9,388.3 533,388.3 539.7,405.7 539.8,405.7 539.8,388.3 544.7,388.3 544.7,413.4 537.8,413.4 
		530.9,395.1 530.9,395.1 530.9,413.4 	"/>
</g>
</svg>
